<?xml version="1.0" encoding="utf-8"?>
<svg width="485px" height="319px" viewBox="0 0 4850 3190" preserveAspectRatio="xMidYMid meet" xmlns="http://www.w3.org/2000/svg" xmlns:bx="https://boxy-svg.com">
  <defs>
    <pattern id="pattern-1" viewBox="0 0 100 100" patternUnits="userSpaceOnUse" preserveAspectRatio="none" width="100" height="100">
      <path d="M 27.701 6.677 Q 33.242 0.639 38.783 6.677 L 45.016 13.47 Q 50.557 19.508 48.441 29.278 L 46.06 40.27 Q 43.943 50.04 37.094 50.04 L 29.39 50.04 Q 22.541 50.04 20.424 40.27 L 18.043 29.278 Q 15.927 19.508 21.468 13.47 Z" style="fill: url(#gradient-4);" transform="matrix(0.978148, -0.207912, 0.207912, 0.978148, -13.804594, 9.818115)" bx:shape="n-gon 33.242 27.947 18.206 27.308 5 0.32 1@f57771fb"/>
      <path d="M 27.616 7.282 Q 33.242 1.415 38.868 7.282 L 45.197 13.882 Q 50.823 19.748 48.674 29.241 L 46.257 39.919 Q 44.108 49.412 37.154 49.412 L 29.33 49.412 Q 22.376 49.412 20.227 39.919 L 17.81 29.241 Q 15.661 19.748 21.287 13.882 Z" style="fill: url(#gradient-5);" transform="matrix(0.970296, 0.241922, -0.241921, 0.970296, 45.937778, 32.079747)" bx:shape="n-gon 33.242 27.947 18.486 26.532 5 0.32 1@55fe59bc"/>
    </pattern>
    <radialGradient id="gradient-4" gradientUnits="userSpaceOnUse" cx="452.638" cy="249.126" r="7.215" gradientTransform="matrix(2.05631, -0.000005, -0.000002, 3.156457, -897.025668, -753.714077)">
      <stop offset="0" style="stop-color: rgb(80, 80, 80);"/>
      <stop offset="1" style="stop-color: rgb(210, 210, 210);"/>
    </radialGradient>
    <radialGradient id="gradient-5" gradientUnits="userSpaceOnUse" cx="452.638" cy="249.126" r="7.215" gradientTransform="matrix(2.087964, -0.000002, -0.000006, 3.066772, -911.34609, -731.504887)">
      <stop offset="0" style="stop-color: rgb(80, 80, 80);"/>
      <stop offset="1" style="stop-color: rgb(210, 210, 210);"/>
    </radialGradient>
  </defs>
  <path d="M 3959.8 1933.154 C 3959.8 1935.885 3959.8 1961.901 3959.8 1965.924 C 3959.8 1979.307 3945.785 2006.606 3935.222 2031.466 C 3924.457 2054.661 3905.182 2072.429 3905.182 2072.429 C 3895.758 2083.903 3883.335 2086.084 3883.335 2086.084 C 3866.083 2077.458 3845.374 2067.239 3831.448 2053.313 C 3824.793 2046.658 3808.537 2028.735 3801.408 2028.735 C 3776.766 2028.735 3724.018 2008.695 3708.557 1993.233 C 3688.998 1973.672 3679.843 1945.874 3664.863 1926.055 C 3656.737 1915.304 3662.36 1886.721 3632.092 1883.997 C 3607.193 1881.756 3593.978 1851.773 3618.032 1825.149 C 3621.587 1821.214 3658.183 1789.634 3667.594 1780.223 C 3669.816 1778.001 3688.213 1756.873 3689.441 1755.645 C 3703.23 1741.856 3714.93 1723.783 3724.943 1703.759 C 3727.821 1698.001 3735.133 1689.022 3738.734 1683.686 C 3746.383 1672.349 3752.274 1667.424 3758.402 1651.734 C 3764.593 1635.883 3780.558 1602.715 3801.408 1602.715 C 3826.672 1602.715 3835.931 1605.852 3855.751 1605.852 C 3872.278 1605.852 3904.129 1611.493 3912.556 1619.919 C 3914.215 1621.579 3954.882 1630.436 3954.882 1630.436 C 3963.101 1668.876 3983.981 1689.011 3981.647 1722.875 L 3976.185 1747.453 C 3976.185 1748.873 3957.069 1784.437 3957.069 1788.416" style="stroke: black; stroke-width: 25; fill: none;"/>
  <path d="M 2650 2996 C 2698 2982 2746 2963 2824 2924 C 2852 2911 2955 2871 2990 2860 C 3045 2842 3219 2818 3395 2804 C 3561 2791 3685 2744 3761 2665 C 3805 2620 3810 2612 3866 2502 C 3886 2462 3920 2413 3940 2392 C 3975 2357 4067 2310 4100 2310 C 4119 2310 4179 2274 4203 2249 C 4230 2220 4221 2180 4181 2153 C 4162 2140 4135 2130 4120 2130 C 4092 2130 4000 2164 3965 2187 C 3938 2205 3903 2203 3896 2184 C 3893 2175 3890 2151 3890 2130 C 3890 2099 3884 2087 3858 2066 C 3840 2051 3820 2036 3814 2031 C 3808 2026 3783 2019 3759 2015 C 3705 2006 3696 1999 3670 1946 C 3659 1922 3639 1897 3625 1890 C 3598.55 1875.516 3595.762 1853.934 3614.141 1829.672 C 3624.947 1815.409 3635.817 1803.722 3660.351 1787.869 C 3672.841 1779.798 3705.564 1741.248 3728.059 1703.106 C 3743.093 1677.615 3760 1657.353 3760 1646 C 3760 1603 3829 1587 3897 1615 C 3944 1635 3963 1634 3985 1610 C 3997 1596 4001 1583 3996 1563 C 3981 1503 3978 1469 3988 1457 C 4018 1421 4108 1454 4233 1545 C 4274 1575 4319 1600 4332 1601 C 4344 1601 4364 1605 4375 1609 C 4403 1620 4471 1603 4497 1578 C 4533 1544 4554 1478 4545 1423 C 4534 1348 4513 1314 4428 1232 C 4371 1178 4335 1155 4295 1147 C 4278 1144 4240 1134 4210 1125 C 4143 1105 4102 1100 3933 1094 C 3820 1089 3788 1092 3713 1110 C 3665 1122 3621 1136 3615 1141 C 3610 1146 3534 1150 3446 1150 C 3263 1150 3230 1142 3142 1076 C 3106 1050 3087 1027 3083 1008 C 3080 992 3073 977 3069 974 C 3058.821 952.873 3060 943 3060 912 C 3060 855 3038.769 860.634 3012 775.179 C 3010.207 769.454 2994 743 2984 709 C 2942 569 2793 501 2525 500 C 2460 500 2427 493 2346 465 C 2259 434 2235 430 2151 430 C 2034 431 1964 447 1874 493 C 1744 559 1675 588 1585 615 C 1536 630 1484 645 1470 650 C 1456 655 1429 662 1410 665 C 1391 669 1348 680 1315 690 C 1282 700 1183 715 1095 724 C 853 748 770 785 704 897 C 682 934 657 981 650 1000 C 621 1073 549 1171 444 1280 C 355 1372 340 1396 300 1511 C 284 1555 255 1609 231 1640 C 209 1668 188 1702 186 1713 C 169 1796 170 1813 196 1888 C 210 1930 226 1967 230 1970 C 234 1973 252 2002 270 2035 C 288 2068 318 2116 336 2141 C 355 2167 370 2196 370 2206 C 371 2254 471 2330 533 2330 C 637 2330 689 2343 730 2377 C 775 2416 810 2476 810 2514 C 810 2547 899 2626 953 2641 C 1009 2656 1145 2648 1195 2626 C 1290 2585 1342 2556 1359 2534 C 1370 2521 1381 2510 1385 2510 C 1389 2510 1411 2497 1434 2482 C 1487 2446 1553 2420 1589 2420 C 1621 2420 1739 2448 1755 2459 C 1761 2463 1788 2475 1815 2485 C 1843 2495 1876 2511 1889 2522 C 1902 2532 1916 2540 1921 2540 C 1944 2540 2070 2634 2095 2669 C 2110 2692 2129.444 2705.703 2132 2710 C 2148.948 2738.485 2156 2744 2176 2785 C 2217 2872 2280 2933 2376 2980 C 2427 3004 2447 3009 2520 3009 C 2567 3009 2625 3003 2650 2996 Z" style="stroke: rgb(0, 0, 0); stroke-linecap: round; stroke-linejoin: round; stroke-width: 25; fill: none;"/>
  <g>
    <path d="M 2771 1203 C 2790 1194 2807 1184 2810 1181 C 2813 1178 2827 1169 2842 1161 C 2875 1144 2900 1085 2900 1022 C 2900 974 2894 966 2811 898 C 2776 869 2627 866 2555 892 C 2521 905 2482 943 2469 978 C 2464 991 2460 1032 2460 1069 C 2460 1130 2463 1139 2489 1164 C 2537 1210 2560 1218 2651 1219 C 2713 1220 2747 1215 2771 1203 Z" style="stroke: rgb(0, 0, 0); fill: rgb(255, 255, 255); stroke-width: 25;"/>
  </g>
  <g id="layer2" fill="#fefefe" stroke="none">
    <path d="M2376 2980 c-96 -47 -159 -108 -200 -195 -20 -41 -40 -75 -44 -75 -5 0 -22 -18 -37 -41 -25 -35 -151 -129 -174 -129 -5 0 -19 -8 -32 -18 -13 -11 -46 -27 -74 -37 -27 -10 -54 -22 -60 -26 -16 -11 -134 -39 -166 -39 -36 0 -102 26 -155 62 -23 15 -45 28 -49 28 -4 0 -15 11 -26 24 -17 22 -69 51 -164 92 -50 22 -186 30 -242 15 -54 -15 -143 -94 -143 -127 0 -38 -35 -98 -80 -137 -41 -34 -93 -47 -197 -47 -62 0 -162 -76 -163 -124 0 -10 -15 -39 -34 -65 -18 -25 -48 -73 -66 -106 -18 -33 -36 -62 -40 -65 -4 -3 -20 -40 -34 -82 -26 -75 -27 -92 -10 -175 2 -11 23 -45 45 -73 24 -31 53 -85 69 -129 40 -115 55 -139 144 -231 105 -109 177 -207 206 -280 7 -19 32 -66 54 -103 66 -112 149 -149 391 -173 88 -9 187 -24 220 -34 33 -10 76 -21 95 -25 19 -3 46 -10 60 -15 14 -5 66 -20 115 -35 90 -27 159 -56 289 -122 90 -46 160 -62 277 -63 84 0 108 4 195 35 81 28 114 35 179 35 268 1 417 69 459 209 10 34 22 61 28 61 19 0 48 85 48 142 0 31 4 59 9 62 4 3 11 18 14 34 4 19 23 42 59 68 88 66 121 74 304 74 88 0 164 -4 169 -9 6 -5 50 -19 98 -31 75 -18 107 -21 220 -16 169 6 210 11 277 31 30 9 68 19 85 22 40 8 76 31 133 85 85 82 106 116 117 191 9 55 -12 121 -48 155 -26 25 -94 42 -122 31 -11 -4 -31 -8 -43 -8 -13 -1 -58 -26 -99 -56 -125 -91 -215 -124 -245 -88 -10 12 -7 46 8 106 5 20 1 33 -11 47 -22 24 -41 25 -88 5 -68 -28 -137 -12 -137 31 0 29 -60 120 -92 139 -68 40 -85 82 -43 105 14 7 34 32 45 56 26 53 35 60 89 69 24 4 49 11 55 16 6 5 26 20 44 35 26 21 32 33 32 64 0 21 3 45 6 54 7 19 42 21 69 3 35 -23 127 -57 155 -57 15 0 42 10 61 23 40 27 49 67 22 96 -24 25 -84 61 -103 61 -33 0 -125 47 -160 82 -20 21 -54 70 -74 110 -56 110 -61 118 -105 163 -76 79 -200 126 -366 139 -176 14 -350 38 -405 56 -35 11 -69 20 -76 20 -8 0 -14 5 -14 10 0 6 -6 10 -13 10 -7 0 -35 11 -63 24 -143 71 -196 85 -304 85 -73 0 -93 -5 -144 -29z m380 -1745 c73 -22 141 -76 153 -122 14 -48 14 -153 1 -153 -5 0 -10 -7 -10 -14 0 -19 -51 -56 -110 -82 -50 -21 -206 -26 -219 -6 -3 6 -19 14 -34 17 -73 19 -116 112 -102 222 6 46 13 62 45 94 37 38 55 45 120 52 77 8 108 6 156 -8z" style="fill: none;"/>
    <path d="M2184 2914 c1 -7 6 -17 10 -21 4 -4 6 -1 4 7 -2 9 3 14 12 12 8 -2 11 0 7 4 -13 14 -35 12 -33 -2z" style="fill: none;"/>
    <path d="M2940 2927 c0 -3 12 -12 26 -22 15 -9 23 -12 20 -6 -7 11 -46 35 -46 28z" style="fill: none;"/>
    <path d="M3165 2860 c-3 -5 -1 -10 4 -10 6 0 11 5 11 10 0 6 -2 10 -4 10 -3 0 -8 -4 -11 -10z" style="fill: none;"/>
    <path d="M3270 2866 c0 -2 7 -6 15 -10 8 -3 15 -1 15 4 0 6 -7 10 -15 10 -8 0 -15 -2 -15 -4z" style="fill: none;"/>
    <path d="M2147 2840 c-3 -11 0 -23 5 -27 6 -3 8 -1 4 5 -3 6 1 18 10 26 13 13 13 16 1 16 -8 0 -17 -9 -20 -20z" style="fill: none;"/>
    <path d="M3338 2833 c6 -2 18 -2 25 0 6 3 1 5 -13 5 -14 0 -19 -2 -12 -5z" style="fill: none;"/>
    <path d="M3620 2816 c0 -2 7 -9 15 -16 9 -7 15 -8 15 -2 0 5 -7 12 -15 16 -8 3 -15 4 -15 2z" style="fill: none;"/>
    <path d="M3660 2786 c0 -2 8 -10 18 -17 15 -13 16 -12 3 4 -13 16 -21 21 -21 13z" style="fill: none;"/>
    <path d="M2096 2748 c3 -5 10 -6 15 -3 13 9 11 12 -6 12 -8 0 -12 -4 -9 -9z" style="fill: none;"/>
    <path d="M3741 2744 c0 -11 3 -14 6 -6 3 7 2 16 -1 19 -3 4 -6 -2 -5 -13z" style="fill: none;"/>
    <path d="M1000 2678 c0 -5 29 -8 65 -8 36 0 65 3 65 8 0 4 -29 7 -65 7 -36 0 -65 -3 -65 -7z" style="fill: none;"/>
    <path d="M2046 2668 c3 -5 10 -6 15 -3 13 9 11 12 -6 12 -8 0 -12 -4 -9 -9z" style="fill: none;"/>
    <path d="M3837 2654 c7 -3 9 -13 6 -22 -4 -14 -3 -14 5 -2 12 16 7 30 -11 29 -9 0 -9 -2 0 -5z" style="fill: none;"/>
    <path d="M795 2590 c-3 -6 1 -7 9 -4 18 7 21 14 7 14 -6 0 -13 -4 -16 -10z" style="fill: none;"/>
    <path d="M1935 2589 c-11 -16 -1 -19 13 -3 7 8 8 14 3 14 -5 0 -13 -5 -16 -11z" style="fill: none;"/>
    <path d="M3885 2530 c-3 -6 1 -7 9 -4 18 7 21 14 7 14 -6 0 -13 -4 -16 -10z" style="fill: none;"/>
    <path d="M1748 2493 c7 -3 16 -2 19 1 4 3 -2 6 -13 5 -11 0 -14 -3 -6 -6z" style="fill: none;"/>
    <path d="M690 2389 c-22 -18 -22 -19 -3 -10 12 6 25 16 28 21 9 15 3 12 -25 -11z" style="fill: none;"/>
    <path d="M4035 2370 c-3 -5 1 -10 10 -10 9 0 13 5 10 10 -3 6 -8 10 -10 10 -2 0 -7 -4 -10 -10z" style="fill: none;"/>
    <path d="M4070 2350 c0 -5 7 -7 15 -4 8 4 15 8 15 10 0 2 -7 4 -15 4 -8 0 -15 -4 -15 -10z" style="fill: none;"/>
    <path d="M4174 2311 c20 -22 26 -25 26 -13 0 4 -10 13 -22 21 -23 14 -23 14 -4 -8z" style="fill: none;"/>
    <path d="M4220 2266 c0 -2 8 -10 18 -17 15 -13 16 -12 3 4 -13 16 -21 21 -21 13z" style="fill: none;"/>
    <path d="M3930 2166 c0 -2 7 -7 16 -10 8 -3 12 -2 9 4 -6 10 -25 14 -25 6z" style="fill: none;"/>
    <path d="M4150 2111 l-25 -7 26 -5 c17 -4 26 -1 26 8 0 7 -1 13 -1 12 -1 -1 -12 -4 -26 -8z" style="fill: none;"/>
    <path d="M4073 2103 c9 -2 23 -2 30 0 6 3 -1 5 -18 5 -16 0 -22 -2 -12 -5z" style="fill: none;"/>
    <path d="M3861 2026 c-13 -23 -47 -36 -95 -36 -22 0 -66 -41 -66 -61 0 -6 -14 -24 -32 -41 l-32 -30 62 -58 c38 -35 62 -65 62 -78 0 -11 4 -23 9 -26 5 -3 12 -18 15 -32 10 -37 34 -60 49 -45 6 6 19 11 29 11 10 0 30 7 43 16 16 11 34 14 55 9 43 -10 52 19 15 49 -23 19 -27 28 -23 57 3 19 8 42 13 52 5 11 3 17 -6 17 -8 1 -24 9 -36 19 -28 23 -31 76 -7 110 24 33 39 12 18 -26 -17 -28 -16 -30 6 -56 26 -29 50 -35 50 -13 0 8 9 18 20 21 52 17 -10 123 -87 149 -26 9 -47 16 -48 16 -1 0 -7 -11 -14 -24z" style="fill: none;"/>
    <path d="M4270 1969 c0 -5 5 -7 10 -4 6 3 10 8 10 11 0 2 -4 4 -10 4 -5 0 -10 -5 -10 -11z" style="fill: none;"/>
    <path d="M4046 1948 c3 -4 9 -8 15 -8 5 0 9 4 9 8 0 5 -7 9 -15 9 -8 0 -12 -4 -9 -9z" style="fill: none;"/>
    <path d="M4130 1949 c12 -9 11 -10 -7 -6 -13 3 -25 1 -28 -3 -3 -4 15 -10 40 -12 45 -3 45 -3 23 14 -13 10 -27 18 -33 18 -5 0 -3 -5 5 -11z" style="fill: none;"/>
    <path d="M4053 1914 c0 -7 6 -10 14 -7 7 3 13 8 13 12 0 4 -6 8 -13 8 -8 0 -14 -6 -14 -13z" style="fill: none;"/>
    <path d="M4016 1861 c-22 -25 -17 -65 8 -69 37 -8 65 69 30 82 -21 8 -18 9 -38 -13z" style="fill: none;"/>
    <path d="M3975 1770 c-8 -24 7 -46 45 -65 20 -10 27 -11 27 -2 0 7 3 22 7 34 6 18 2 22 -24 28 -16 4 -30 11 -30 16 0 17 -19 9 -25 -11z" style="fill: none;"/>
    <path d="M4066 1691 c6 -6 21 -13 34 -16 12 -2 21 -3 19 -1 -2 3 -8 5 -14 6 -5 1 -19 7 -30 12 -15 8 -17 8 -9 -1z" style="fill: none;"/>
    <path d="M160 1681 c0 -6 4 -13 10 -16 6 -3 7 1 4 9 -7 18 -14 21 -14 7z" style="fill: none;"/>
    <path d="M4160 1650 c-13 -8 -13 -10 2 -10 9 0 20 5 23 10 8 13 -5 13 -25 0z" style="fill: none;"/>
    <path d="M4440 1651 c0 -6 4 -13 10 -16 6 -3 7 1 4 9 -7 18 -14 21 -14 7z" style="fill: none;"/>
    <path d="M4348 1633 c6 -2 18 -2 25 0 6 3 1 5 -13 5 -14 0 -19 -2 -12 -5z" style="fill: none;"/>
    <path d="M220 1586 c0 -2 7 -7 16 -10 8 -3 12 -2 9 4 -6 10 -25 14 -25 6z" style="fill: none;"/>
    <path d="M4170 1550 c-9 -6 -10 -10 -3 -10 6 0 15 5 18 10 8 12 4 12 -15 0z" style="fill: none;"/>
    <path d="M4006 1501 c-3 -5 6 -8 20 -8 19 0 22 2 13 8 -18 11 -26 11 -33 0z" style="fill: none;"/>
    <path d="M4050 1480 c-9 -6 -10 -10 -3 -10 6 0 15 5 18 10 8 12 4 12 -15 0z" style="fill: none;"/>
    <path d="M4565 1380 c-3 -6 1 -7 9 -4 18 7 21 14 7 14 -6 0 -13 -4 -16 -10z" style="fill: none;"/>
    <path d="M370 1301 c0 -10 19 -25 25 -20 1 2 -3 10 -11 17 -8 7 -14 8 -14 3z" style="fill: none;"/>
    <path d="M4489 1258 c-7 -23 -4 -35 7 -35 10 0 11 4 3 13 -7 8 -6 14 3 17 10 4 10 6 1 6 -7 1 -13 0 -14 -1z" style="fill: none;"/>
    <path d="M465 1200 c3 -5 8 -10 11 -10 2 0 4 5 4 10 0 6 -5 10 -11 10 -5 0 -7 -4 -4 -10z" style="fill: none;"/>
    <path d="M4419 1183 c-13 -17 -13 -17 6 -3 11 8 22 16 24 17 2 2 0 3 -6 3 -6 0 -17 -8 -24 -17z" style="fill: none;"/>
    <path d="M3330 1116 c0 -2 9 -6 20 -9 11 -3 18 -1 14 4 -5 9 -34 13 -34 5z" style="fill: none;"/>
    <path d="M3788 1063 c12 -2 30 -2 40 0 9 3 -1 5 -23 4 -22 0 -30 -2 -17 -4z" style="fill: none;"/>
    <path d="M4008 1063 c7 -3 16 -2 19 1 4 3 -2 6 -13 5 -11 0 -14 -3 -6 -6z" style="fill: none;"/>
    <path d="M1063 693 c15 -2 37 -2 50 0 12 2 0 4 -28 4 -27 0 -38 -2 -22 -4z" style="fill: none;"/>
    <path d="M1367 639 c7 -7 15 -10 18 -7 3 3 -2 9 -12 12 -14 6 -15 5 -6 -5z" style="fill: none;"/>
    <path d="M1405 630 c-3 -6 1 -7 9 -4 18 7 21 14 7 14 -6 0 -13 -4 -16 -10z" style="fill: none;"/>
    <path d="M1580 581 c0 -6 4 -13 10 -16 6 -3 7 1 4 9 -7 18 -14 21 -14 7z" style="fill: none;"/>
    <path d="M1685 540 c3 -5 8 -10 11 -10 2 0 4 5 4 10 0 6 -5 10 -11 10 -5 0 -7 -4 -4 -10z" style="fill: none;"/>
    <path d="M1824 481 c4 -6 16 -16 28 -22 15 -8 18 -8 14 0 -4 6 -16 16 -28 22 -15 8 -18 8 -14 0z" style="fill: none;"/>
    <path d="M2415 460 c3 -5 8 -10 11 -10 2 0 4 5 4 10 0 6 -5 10 -11 10 -5 0 -7 -4 -4 -10z" style="fill: none;"/>
    <path d="M2280 420 c0 -5 5 -10 11 -10 5 0 7 5 4 10 -3 6 -8 10 -11 10 -2 0 -4 -4 -4 -10z" style="fill: none;"/>
    <path d="M2125 410 c-49 -3 -85 -7 -80 -9 28 -6 153 -1 175 8 14 5 18 9 10 8 -8 0 -55 -4 -105 -7z" style="fill: none;"/>
  </g>
  <ellipse cx="757.006" cy="343.503" rx="186.586" ry="121.027" transform="matrix(0.992546, 0.121876, -0.12189, 0.992544, 3372.096263, 1441.490715)" style="stroke: rgb(0, 0, 0);"/>
  <path d="M 3969.653 1798.048 C 3976.352 1798.048 3988.114 1801.399 3991.835 1805.107 C 3992.227 1805.507 3999.911 1806.115 3999.911 1806.115 C 3999.911 1806.115 4004.596 1807.124 4004.951 1807.124 C 4004.951 1808.132 4008.985 1814.185 4008.985 1814.185 L 4008.985 1826.286 C 4008.985 1827.295 4011.266 1834.637 4012.012 1835.364 C 4014.235 1837.604 4025.048 1840.407 4028.134 1840.407 C 4029.155 1840.407 4036.201 1840.407 4036.201 1840.407 C 4036.201 1839.398 4042.118 1829.46 4043.262 1828.303 C 4045.637 1825.946 4056.37 1830.322 4056.37 1830.322 C 4057.385 1830.322 4066.458 1838.938 4066.458 1842.424 C 4066.458 1844.069 4068.472 1847.466 4068.472 1847.466 C 4073.324 1852.302 4071.498 1861.157 4071.498 1868.647 C 4071.498 1870.322 4070.492 1876.715 4070.492 1876.715 C 4064.93 1893.43 4046.448 1889.664 4035.194 1900.92 C 4034.687 1901.44 4029.14 1906.587 4029.14 1907.981 C 4029.14 1910.872 4030.907 1924.37 4029.14 1926.135 C 4024.722 1930.569 4021.499 1933.788 4018.045 1937.228 C 4017.053 1938.238 4013.019 1936.22 4012.012 1937.228 C 4007.059 1942.184 3995.283 1935.211 3990.829 1935.211 C 3984.203 1935.211 3977.04 1926.298 3970.66 1923.11 C 3966.374 1920.973 3956.379 1921.937 3952.505 1918.066 C 3947.066 1912.638 3936.948 1904.525 3931.328 1898.903 C 3929.547 1897.123 3929.662 1892.57 3928.301 1889.827 C 3923.036 1879.311 3918.213 1858.858 3918.213 1848.476 C 3918.213 1847.777 3919.219 1831.331 3919.219 1831.331 C 3920.234 1826.035 3927.569 1821.675 3929.308 1818.219 C 3929.677 1817.476 3933.341 1815.193 3933.341 1815.193 C 3934.348 1812.123 3941.409 1809.794 3941.409 1808.132 C 3941.409 1806.515 3946.291 1804.261 3947.464 1803.09 C 3950.817 1799.739 3969.653 1798.048 3969.653 1798.048 Z" style="stroke: black; fill: rgb(255, 255, 255); stroke-width: 0;"/>
  <path d="M 4119.912 1808.132 C 4116.349 1808.132 4110.881 1814.185 4108.817 1814.185 C 4106.34 1814.185 4106.442 1825.575 4106.804 1828.303 C 4107.231 1831.552 4106.652 1834.919 4107.81 1838.39 C 4111.634 1849.84 4112.88 1855.536 4125.967 1855.536 C 4127.357 1855.536 4134.02 1856.558 4135.041 1855.536 C 4138.322 1852.257 4145.998 1847.6 4149.163 1844.441 C 4151.741 1841.875 4152.306 1836.253 4154.204 1834.356 C 4154.573 1833.999 4156.68 1827.755 4155.21 1826.286 C 4152.777 1823.84 4150.184 1822.267 4148.149 1820.236 C 4143.898 1815.979 4131.195 1822.43 4126.973 1818.219 C 4124.765 1816.008 4119.912 1808.132 4119.912 1808.132 Z" style="stroke: black; fill: rgb(255, 255, 255); stroke-width: 0;"/>
  <path d="M 4218.752 1850.493 C 4217.746 1850.493 4212.698 1852.51 4212.698 1852.51 C 4212.698 1855.981 4204.63 1861.84 4204.63 1866.63 C 4204.63 1876.878 4198.46 1890.953 4192.529 1896.886 C 4191.442 1897.969 4184.461 1908.989 4184.461 1908.989 C 4184.461 1923.91 4188.314 1921.922 4196.562 1930.169 C 4197.736 1931.34 4198.475 1936.22 4200.596 1936.22 C 4208.295 1936.22 4210.431 1934.456 4214.719 1930.169 C 4216.435 1928.449 4221.968 1928.969 4223.793 1927.144 C 4234.728 1916.212 4235.894 1901.054 4235.894 1882.766 C 4235.894 1878.895 4242.217 1864.88 4238.921 1861.586 C 4236.445 1859.109 4231.404 1852.51 4228.833 1852.51 C 4226.864 1852.51 4220.766 1851.502 4220.766 1851.502 Z" style="stroke: black; stroke-width: 0; fill: rgb(255, 255, 255);"/>
  <path d="M 4063.431 1915.04 C 4063.431 1915.04 4058.687 1914.743 4058.391 1915.04 C 4055.364 1918.066 4051.728 1920.691 4049.309 1923.11 C 4048.374 1924.044 4049.309 1931.534 4049.309 1933.194 C 4049.309 1942.835 4047.767 1955.842 4053.35 1961.435 C 4055.421 1963.495 4060.585 1963.629 4062.425 1965.469 C 4063.228 1966.255 4075.685 1968.346 4077.553 1966.477 C 4084.477 1959.55 4083.6 1952.965 4083.6 1942.272 C 4083.6 1941.056 4083.962 1933.194 4082.594 1933.194 C 4079.957 1933.194 4074.142 1929.769 4072.513 1928.152 C 4071.339 1926.981 4064.437 1918.066 4064.437 1918.066 Z" style="stroke: black; stroke-width: 0; fill: rgb(255, 255, 255);"/>
  <path d="M 3911.492 1814.466 C 3767.982 1711.963 4095.52 1654.112 4201.045 1668.441" style="fill: none; stroke: black; stroke-linecap: round; stroke-width: 25;"/>
  <path d="M 3906.491 1881.297 C 3719.226 2046.557 4327.673 2083.228 4346.098 1966.7" style="fill: none; stroke: black; stroke-linecap: round; stroke-width: 25;"/>
</svg>